<?xml version="1.0" standalone="no"?>
<!DOCTYPE svg PUBLIC "-//W3C//DTD SVG 20010904//EN"
 "http://www.w3.org/TR/2001/REC-SVG-20010904/DTD/svg10.dtd">
<svg version="1.0" xmlns="http://www.w3.org/2000/svg"
 width="1000.000000pt" height="1000.000000pt" viewBox="0 0 1000.000000 1000.000000"
 preserveAspectRatio="xMidYMid meet">
<metadata>
Created by potrace 1.14, written by Peter Selinger 2001-2017
</metadata>
<g transform="translate(0.000000,1000.000000) scale(0.100000,-0.100000)"
fill="#000000" stroke="none">
<path d="M4791 9449 c-77 -13 -246 -71 -333 -115 -285 -143 -569 -415 -803
-768 -91 -138 -226 -380 -286 -512 l-43 -97 -66 7 c-571 54 -1053 10 -1427
-130 -402 -150 -683 -416 -807 -762 -84 -237 -92 -530 -21 -837 85 -365 278
-759 567 -1159 16 -22 27 -45 25 -50 -3 -6 -38 -59 -80 -118 -193 -276 -356
-588 -449 -858 -124 -362 -144 -732 -57 -1017 52 -168 160 -345 289 -473 264
-261 651 -417 1170 -470 141 -14 546 -12 700 4 69 7 126 12 126 12 1 -1 27
-57 58 -126 172 -380 399 -723 636 -960 236 -237 467 -381 719 -447 77 -20
128 -26 261 -30 151 -5 175 -3 276 20 534 121 1028 616 1385 1387 l67 145 99
-5 c54 -3 235 -5 403 -5 240 1 330 4 420 18 473 73 801 217 1040 456 136 136
229 283 285 451 173 518 -15 1217 -519 1928 l-66 93 70 100 c440 628 636 1222
564 1708 -34 231 -123 429 -275 604 -332 386 -960 580 -1743 538 -118 -6 -234
-14 -258 -17 l-44 -6 -43 93 c-96 211 -260 490 -390 663 -303 402 -639 646
-1001 727 -93 20 -346 25 -449 8z m474 -203 c210 -62 404 -185 601 -381 161
-159 266 -296 399 -515 58 -95 215 -394 215 -409 0 -4 -71 -20 -157 -36 -212
-37 -548 -121 -766 -191 l-177 -58 -49 55 c-109 122 -286 175 -446 133 -84
-21 -140 -56 -212 -131 l-62 -65 -153 50 c-267 88 -587 169 -818 207 -58 10
-109 21 -113 25 -19 17 145 328 278 530 298 451 634 721 995 799 137 30 338
24 465 -13z m-2068 -1464 l52 -7 -30 -75 c-91 -234 -208 -636 -271 -932 l-33
-157 -58 -10 c-127 -22 -259 -128 -320 -258 -29 -62 -32 -77 -32 -168 0 -55 3
-114 7 -132 7 -31 3 -36 -175 -202 -184 -172 -390 -388 -533 -558 -42 -51 -81
-93 -84 -93 -9 0 -134 187 -205 305 -143 236 -263 514 -319 736 -194 774 129
1298 924 1498 69 18 188 38 365 61 76 10 627 4 712 -8z m4408 -6 c417 -64 726
-197 923 -398 95 -97 144 -163 192 -262 222 -455 89 -1081 -383 -1799 l-91
-139 -31 39 c-139 175 -493 545 -693 724 l-83 74 28 60 c26 55 28 70 28 175 0
109 -2 119 -32 183 -39 82 -123 173 -196 213 -28 15 -86 35 -127 44 -59 13
-76 20 -78 36 -2 10 -30 129 -63 263 -56 224 -158 557 -222 723 l-26 66 62 6
c34 4 80 8 102 10 98 10 595 -3 690 -18z m-982 -181 c62 -169 121 -355 167
-525 37 -137 90 -365 90 -389 0 -9 -18 -24 -39 -35 -22 -10 -52 -32 -67 -47
-15 -16 -31 -29 -36 -29 -5 0 -79 47 -166 103 -305 201 -579 360 -922 534
l-204 104 -1 89 0 88 70 22 c232 71 427 124 583 159 207 47 454 91 463 82 4
-3 32 -73 62 -156z m-3026 130 c270 -50 657 -149 886 -227 l68 -24 2 -73 2
-73 -207 -104 c-362 -181 -639 -342 -970 -561 l-186 -124 -44 22 c-24 13 -45
24 -47 25 -5 4 55 280 96 434 77 295 226 730 249 730 7 0 75 -11 151 -25z
m1086 -629 c123 -123 293 -163 462 -109 56 17 162 89 194 129 l21 27 52 -23
c217 -91 734 -385 1076 -611 132 -87 142 -96 136 -119 -29 -116 -20 -243 25
-335 58 -117 204 -230 315 -242 30 -4 47 -11 50 -22 3 -9 11 -97 18 -196 26
-362 10 -1355 -22 -1389 -5 -4 -29 -12 -55 -17 -72 -14 -144 -55 -212 -121
-105 -103 -149 -228 -133 -373 l6 -57 -125 -82 c-368 -241 -596 -374 -952
-552 l-209 -104 -47 36 c-176 135 -402 134 -571 -4 l-52 -43 -155 75 c-291
140 -674 358 -986 561 -70 46 -129 87 -132 92 -3 4 -2 37 2 71 18 149 -26 275
-130 379 -67 66 -124 99 -214 123 l-60 15 -7 75 c-15 169 -28 495 -28 708 0
251 18 675 31 708 6 16 19 22 54 26 112 13 258 125 316 243 53 109 55 271 4
382 -14 30 -22 59 -19 64 15 25 458 305 681 431 158 89 584 307 600 308 6 0
36 -24 66 -54z m2748 -1321 c160 -144 434 -427 578 -598 l123 -147 -73 -87
c-227 -273 -538 -588 -771 -781 -14 -12 -22 -12 -53 0 l-37 13 6 85 c20 266
26 420 26 740 0 318 -5 455 -25 740 l-7 85 54 26 c29 15 56 26 60 25 4 0 57
-46 119 -101z m-4768 40 c22 -19 61 -45 86 -58 l46 -22 -7 -75 c-4 -41 -10
-275 -14 -520 -6 -411 0 -641 22 -892 l6 -66 -40 -21 c-23 -12 -46 -21 -53
-21 -19 0 -252 216 -455 422 -177 180 -414 447 -414 468 0 14 147 189 293 349
111 121 471 471 485 471 2 0 22 -16 45 -35z m-727 -1185 c118 -132 359 -371
532 -530 l103 -95 -33 -70 c-31 -67 -33 -75 -33 -185 0 -110 1 -118 33 -182
66 -135 179 -226 313 -254 41 -8 77 -18 80 -22 3 -4 18 -63 33 -132 56 -250
163 -617 235 -804 l28 -73 -76 -7 c-208 -17 -508 -18 -671 -2 -656 66 -1085
312 -1257 719 -111 263 -110 591 3 948 84 268 259 608 449 874 l46 65 52 -62
c28 -35 102 -119 163 -188z m6386 140 c78 -113 198 -318 268 -462 250 -512
301 -971 147 -1327 -46 -105 -104 -190 -201 -289 -210 -217 -546 -358 -986
-413 -118 -15 -580 -19 -701 -6 l-75 8 53 151 c67 188 149 473 199 688 21 91
40 168 44 172 3 5 33 13 65 19 139 25 258 117 322 247 37 75 38 78 38 191 0
106 -2 121 -28 176 -15 33 -35 68 -45 78 -15 17 -13 21 43 70 224 195 524 501
705 719 83 100 64 103 152 -22z m-1566 -1350 c29 -27 68 -57 88 -67 21 -10 36
-24 36 -34 0 -63 -112 -486 -195 -734 -87 -262 -99 -287 -127 -280 -13 2 -79
14 -148 25 -274 46 -524 106 -811 197 l-146 46 -6 51 c-4 28 -9 67 -12 86 l-7
35 198 98 c317 158 687 373 954 555 58 39 109 71 114 71 5 1 33 -21 62 -49z
m-3296 -76 c265 -172 640 -386 933 -530 94 -46 171 -85 173 -87 2 -2 -2 -34
-9 -73 l-13 -69 -114 -38 c-260 -87 -753 -206 -966 -233 l-51 -6 -45 123 c-54
146 -115 340 -157 494 -37 137 -91 371 -91 393 0 10 19 27 44 40 24 13 60 41
82 63 37 38 38 39 63 22 14 -9 82 -54 151 -99z m1237 -1085 c175 -158 429
-158 603 -2 28 25 62 65 76 89 14 24 31 44 37 44 6 0 68 -18 137 -39 277 -87
564 -157 825 -201 72 -13 131 -24 133 -25 6 -5 -128 -277 -193 -390 -296 -523
-661 -864 -1050 -982 -83 -25 -103 -27 -265 -27 -162 0 -182 2 -265 27 -230
70 -431 201 -635 413 -205 213 -393 496 -550 829 -33 70 -57 131 -54 136 3 5
16 9 29 9 40 0 369 68 532 110 167 42 449 125 497 145 31 13 31 13 67 -43 19
-32 54 -73 76 -93z"/>
<path d="M3851 5653 c-32 -28 -432 -989 -429 -1032 6 -66 80 -91 125 -42 10
11 36 65 57 121 l39 100 256 -2 255 -3 42 -104 c43 -108 69 -141 111 -141 29
0 73 42 73 70 0 31 -409 1001 -433 1028 -25 27 -67 29 -96 5z m151 -483 l96
-240 -200 0 c-156 0 -199 3 -195 13 60 153 193 467 197 467 3 0 49 -108 102
-240z"/>
<path d="M4562 5647 l-22 -23 0 -516 0 -517 26 -20 c26 -20 38 -21 374 -21
317 0 350 2 368 18 32 26 37 63 12 95 l-21 27 -305 0 -304 0 0 174 0 175 219
3 c199 3 221 5 240 22 31 28 28 79 -5 105 -25 20 -39 21 -240 21 l-214 0 0
170 0 170 299 0 c275 0 301 1 322 18 31 26 31 78 0 104 -22 17 -48 18 -375 18
l-353 0 -21 -23z"/>
<path d="M5562 5647 l-22 -23 0 -516 0 -517 26 -20 c25 -19 40 -21 198 -21
112 0 195 5 241 15 209 44 365 203 409 418 66 317 -99 594 -399 672 -43 11
-110 15 -245 15 -182 0 -187 -1 -208 -23z m443 -131 c152 -46 257 -185 272
-361 16 -191 -75 -359 -235 -433 -52 -24 -70 -27 -204 -30 l-148 -4 0 421 0
421 133 0 c88 0 150 -5 182 -14z"/>
</g>
</svg>
